<svg width="506" height="250" viewBox="0 0 506 250" fill="none" xmlns="http://www.w3.org/2000/svg">
<g clip-path="url(#clip0_440_1540)">
<path d="M154.321 91.1108H152.011C140.853 91.1108 131.044 95.3808 122.58 103.927C114.113 112.475 109.885 122.546 109.885 134.134V150.031H52.1746L31 179.501H109.885V179.534H138.739V179.501H167.484V150.031H138.739V135.02C138.739 131.291 140.18 127.944 143.068 125C145.953 122.051 149.221 120.578 152.879 120.578C156.92 120.578 160.384 121.958 163.265 124.705C166.152 127.458 167.594 130.893 167.594 135.02V147.449H196.451V134.134C196.451 122.744 192.215 112.724 183.756 104.076C175.289 95.4347 165.475 91.1108 154.321 91.1108Z" fill="#E96205"/>
<path d="M312.687 150.071L268.653 209H305.854L347.51 150.071H312.687Z" fill="#E96205"/>
<path d="M388.198 95.7703C388.198 93.197 390.241 91.111 392.76 91.111H440.607C443.126 91.111 445.169 93.197 445.169 95.7703V115.886C445.169 118.459 443.126 120.545 440.607 120.545H392.76C390.241 120.545 388.198 118.459 388.198 115.886V95.7703Z" fill="#E96205"/>
<path d="M446.12 121.457V135.598C446.12 139.543 444.695 142.941 441.96 145.793C439.168 148.646 435.84 150.042 431.978 150.042H372.85C369.581 150.042 385.81 150.102 363.705 150.164L343.548 179.536H432.87C444.218 179.536 454.024 175.227 462.402 166.731C470.78 158.174 475 148.1 475 136.509V121.457H446.12Z" fill="#E96205"/>
<path d="M252.418 150.04C248.792 150.04 245.524 148.584 242.612 145.611C239.761 142.697 238.275 139.359 238.275 135.596C238.275 131.469 239.642 127.949 242.316 124.975C245.049 122.061 248.377 120.606 252.418 120.606H264.718V150.04H258.777C256.579 150.04 254.437 150.1 252.418 150.04ZM293.599 150.04V91.1111H251.587C240.414 91.1111 230.609 95.4205 222.172 104.097C213.674 112.716 209.454 122.73 209.454 134.138V136.507C209.454 145.366 211.95 153.378 217.06 160.539C218.427 162.602 220.091 164.604 221.993 166.546C226.926 171.705 232.393 175.285 238.395 177.29L210.821 208.969H248.02L271.374 179.534L293.599 150.04Z" fill="#E96205"/>
<path d="M153.421 81.0074C157.105 81.0074 160.373 79.4895 163.226 76.578C166.138 73.6043 167.563 70.2662 167.563 66.5636C167.622 64.501 167.563 62.3163 167.563 60.0695V54H138.743V66.5636C138.743 70.6907 140.17 74.0889 143.021 76.8803C145.933 79.6117 149.38 81.0074 153.421 81.0074Z" fill="#E96205"/>
</g>
<defs>
<clipPath id="clip0_440_1540">
<rect width="506" height="250" fill="white"/>
</clipPath>
</defs>
</svg>
